<?xml version="1.0" encoding="UTF-8"?>
<svg version="1.1" xmlns="http://www.w3.org/2000/svg" width="376" height="113">
<path d="M0 0 C124.08 0 248.16 0 376 0 C376 37.29 376 74.58 376 113 C251.92 113 127.84 113 0 113 C0 75.71 0 38.42 0 0 Z " fill="#4F4CB2" transform="translate(0,0)"/>
<path d="M0 0 C1.48831242 0.00667405 2.97660807 0.01863442 4.46484375 0.03515625 C5.22345703 0.03966797 5.98207031 0.04417969 6.76367188 0.04882812 C8.64326246 0.06064945 10.52281274 0.07858547 12.40234375 0.09765625 C16.11404333 9.02921805 19.81196873 17.96639664 23.49920654 26.90808105 C24.10618616 28.37964871 24.7134911 29.85108222 25.32110596 31.3223877 C27.1465059 35.74268942 28.96627682 40.16523227 30.77822876 44.59106445 C31.3603484 46.01060475 31.94430947 47.42939133 32.53012085 48.84741211 C33.35188237 50.83768207 34.16697015 52.83055989 34.98046875 54.82421875 C35.4487207 55.96455566 35.91697266 57.10489258 36.39941406 58.27978516 C37.40234375 61.09765625 37.40234375 61.09765625 37.40234375 64.09765625 C31.79234375 64.09765625 26.18234375 64.09765625 20.40234375 64.09765625 C15.40234375 52.34765625 15.40234375 52.34765625 15.40234375 50.09765625 C8.14234375 50.42765625 0.88234375 50.75765625 -6.59765625 51.09765625 C-8.24765625 55.05765625 -9.89765625 59.01765625 -11.59765625 63.09765625 C-17.20765625 63.09765625 -22.81765625 63.09765625 -28.59765625 63.09765625 C-27.47266767 56.34772475 -27.47266767 56.34772475 -26.12646484 53.10620117 C-25.82880219 52.38071579 -25.53113953 51.65523041 -25.22445679 50.90776062 C-24.74016708 49.75459099 -24.74016708 49.75459099 -24.24609375 48.578125 C-23.90897369 47.76128738 -23.57185364 46.94444977 -23.22451782 46.1028595 C-22.14644236 43.4944778 -21.05975279 40.88978929 -19.97265625 38.28515625 C-19.2650444 36.57771446 -18.55800812 34.87003402 -17.8515625 33.16210938 C-16.45674871 29.79180044 -15.05753165 26.42337013 -13.65527344 23.05615234 C-12.27415142 19.73575456 -10.90557953 16.41059779 -9.54785156 13.08056641 C-9.06416611 11.896278 -9.06416611 11.896278 -8.57070923 10.68806458 C-7.96119104 9.19386375 -7.35365608 7.69885194 -6.74838257 6.20292664 C-4.26225661 0.11569643 -4.26225661 0.11569643 0 0 Z " fill="#FAFAFD" transform="translate(182.59765625,26.90234375)"/>
<path d="M0 0 C2.23316838 1.1484866 4.21133154 2.42612445 6.23828125 3.90625 C8.07918595 5.26372832 8.07918595 5.26372832 11 5 C12.21821114 4.21224222 13.40279282 3.37159621 14.5625 2.5 C19.35515418 -0.58664517 23.42862044 -0.93889703 29 0 C34.56756839 1.65180912 37.88444513 4.43781647 41.08984375 9.21875 C43.27655586 13.49832392 43.11649761 17.64260165 43.09765625 22.390625 C43.0962413 23.09523865 43.09482635 23.79985229 43.09336853 24.52581787 C43.08778933 26.76725584 43.07524073 29.00859243 43.0625 31.25 C43.05748231 32.77343605 43.05291987 34.29687368 43.04882812 35.8203125 C43.03782674 39.54690772 43.02057646 43.27344396 43 47 C38.71 47 34.42 47 30 47 C29.95101562 45.02515625 29.90203125 43.0503125 29.8515625 41.015625 C29.77653189 38.42706908 29.70098419 35.83852811 29.625 33.25 C29.5940625 31.94804688 29.563125 30.64609375 29.53125 29.3046875 C29.47324219 27.42910156 29.47324219 27.42910156 29.4140625 25.515625 C29.3826416 24.36352539 29.3512207 23.21142578 29.31884766 22.02441406 C29.01331963 19.12634273 28.59957694 17.40895861 27 15 C24.13879744 13.56939872 22.15989415 13.61307419 19 14 C16.01649694 17.79379388 15.5966552 20.86650238 15.48828125 25.61328125 C15.45283203 26.86044922 15.41738281 28.10761719 15.38085938 29.39257812 C15.35830078 30.68615234 15.33574219 31.97972656 15.3125 33.3125 C15.27833984 34.62541016 15.24417969 35.93832031 15.20898438 37.29101562 C15.12660728 40.52725851 15.05741984 43.76323385 15 47 C11.37 47 7.74 47 4 47 C3.99589111 46.17798096 3.99178223 45.35596191 3.98754883 44.5090332 C3.95460757 40.77612958 3.88395896 37.04485666 3.8125 33.3125 C3.80669922 32.01892578 3.80089844 30.72535156 3.79492188 29.39257812 C3.76591797 28.14541016 3.73691406 26.89824219 3.70703125 25.61328125 C3.6913208 24.46641846 3.67561035 23.31955566 3.65942383 22.13793945 C2.80856062 18.08901505 1.16901445 16.57513848 -2 14 C-4.54412036 13.16643587 -4.54412036 13.16643587 -7 14 C-10.83016019 17.82617966 -11.5152258 20.48906407 -11.609375 25.83203125 C-11.64160156 27.12431641 -11.67382812 28.41660156 -11.70703125 29.74804688 C-11.7217735 31.10286009 -11.73609112 32.45767798 -11.75 33.8125 C-11.77817759 35.18688639 -11.80810754 36.56123805 -11.83984375 37.93554688 C-11.91046478 41.29004602 -11.95750509 44.64502667 -12 48 C-16.29 48 -20.58 48 -25 48 C-25 32.49 -25 16.98 -25 1 C-21.04 1 -17.08 1 -13 1 C-13 1.66 -13 2.32 -13 3 C-12.34 2.505 -11.68 2.01 -11 1.5 C-7.23706459 -0.3814677 -4.08356464 -0.8407339 0 0 Z " fill="#FBFBFD" transform="translate(252,43)"/>
<path d="M0 0 C38.94 0 77.88 0 118 0 C118 30.69 118 61.38 118 93 C79.06 93 40.12 93 0 93 C0 62.31 0 31.62 0 0 Z M5 5 C5 32.72 5 60.44 5 89 C40.97 89 76.94 89 114 89 C114 61.28 114 33.56 114 5 C78.03 5 42.06 5 5 5 Z " fill="#EBEBF6" transform="translate(14,12)"/>
<path d="M0 0 C4.29 0 8.58 0 13 0 C13 5.28 13 10.56 13 16 C17.29 16 21.58 16 26 16 C26 19.96 26 23.92 26 28 C21.71 28 17.42 28 13 28 C13 39.88 13 51.76 13 64 C8.38 64 3.76 64 -1 64 C-1 52.12 -1 40.24 -1 28 C-4.96 28 -8.92 28 -13 28 C-13 24.37 -13 20.74 -13 17 C-8.71 17 -4.42 17 0 17 C0 11.39 0 5.78 0 0 Z " fill="#F4F4FA" transform="translate(336,27)"/>
<path d="M0 0 C0.99 0 1.98 0 3 0 C3.33 1.65 3.66 3.3 4 5 C4.598125 4.67 5.19625 4.34 5.8125 4 C8 3 8 3 11 3 C11.33 4.65 11.66 6.3 12 8 C13.98 8.66 15.96 9.32 18 10 C17.34 10.99 16.68 11.98 16 13 C16 13.99 16 14.98 16 16 C17.32 16.66 18.64 17.32 20 18 C20 18.66 20 19.32 20 20 C18.02 20.99 18.02 20.99 16 22 C16.495 22.8971875 16.495 22.8971875 17 23.8125 C18 26 18 26 18 29 C16.02 29 14.04 29 12 29 C11.67 30.98 11.34 32.96 11 35 C8.69 34.34 6.38 33.68 4 33 C3.67 34.32 3.34 35.64 3 37 C2.01 37 1.02 37 0 37 C-0.33 35.68 -0.66 34.36 -1 33 C-2.1446875 33.495 -2.1446875 33.495 -3.3125 34 C-6 35 -6 35 -9 35 C-8.505 32.03 -8.505 32.03 -8 29 C-10.31 29 -12.62 29 -15 29 C-14.42415568 26.61435923 -13.77772405 24.33317216 -13 22 C-14.32 21.34 -15.64 20.68 -17 20 C-17 19.01 -17 18.02 -17 17 C-16.01 16.67 -15.02 16.34 -14 16 C-14.33 13.69 -14.66 11.38 -15 9 C-13.02 8.67 -11.04 8.34 -9 8 C-8.67 6.35 -8.34 4.7 -8 3 C-5.61435923 3.57584432 -3.33317216 4.22227595 -1 5 C-0.67 3.35 -0.34 1.7 0 0 Z " fill="#F2F2F9" transform="translate(72,53)"/>
<path d="M0 0 C3.16260545 1.73994474 5.85564151 3.39470401 8.4140625 5.953125 C10.38688247 6.18945752 10.38688247 6.18945752 12.6015625 6.203125 C17.22276643 6.62866397 19.77186465 8.07427925 23.10546875 11.25390625 C24.99108976 13.7023992 25.34158688 15.90914915 25.4140625 18.953125 C25.99414062 18.97890625 26.57421875 19.0046875 27.171875 19.03125 C32.61472731 19.4264406 36.23478928 20.16262138 40.4140625 23.953125 C44.53101354 29.50652001 45.33509151 35.18754156 44.4140625 41.953125 C42.36929277 47.97383587 38.61356048 50.78572314 33.4765625 54.265625 C30.44456145 55.27629202 27.58013969 55.0748972 24.4140625 54.953125 C24.4140625 53.963125 24.4140625 52.973125 24.4140625 51.953125 C25.00574219 51.78296875 25.59742187 51.6128125 26.20703125 51.4375 C31.78069538 49.72812177 36.11207737 48.0224385 39.7265625 43.203125 C41.1815129 38.44146914 40.86680594 34.33798728 39.3515625 29.703125 C36.45003498 25.58482788 33.0367594 23.498756 28.1796875 22.48828125 C26.26551878 22.24052537 24.33946339 22.08824085 22.4140625 21.953125 C22.1459375 20.86 21.8778125 19.766875 21.6015625 18.640625 C20.3381732 14.60655306 20.3381732 14.60655306 17.4140625 11.953125 C15.10755325 11.56099403 15.10755325 11.56099403 12.6015625 11.578125 C7.1914441 11.20800045 5.23994379 9.68791388 1.4140625 5.953125 C-3.06459721 3.2057119 -7.48347842 3.45097823 -12.5859375 3.953125 C-17.0641936 5.41717026 -20.41172367 7.9259478 -23.41796875 11.51953125 C-25.52436594 15.90844579 -25.10737589 20.75182514 -24.9921875 25.52734375 C-25.5859375 28.953125 -25.5859375 28.953125 -28.4921875 31.22265625 C-29.513125 31.79371094 -30.5340625 32.36476562 -31.5859375 32.953125 C-34.04258947 36.63810296 -34.28680241 39.67284286 -33.5859375 43.953125 C-31.79229839 46.7631596 -30.56712815 48.46252968 -27.5859375 49.953125 C-26.04924885 50.17780331 -24.50625696 50.36109305 -22.9609375 50.515625 C-22.14367187 50.59941406 -21.32640625 50.68320313 -20.484375 50.76953125 C-19.54464844 50.86041016 -19.54464844 50.86041016 -18.5859375 50.953125 C-18.5859375 52.273125 -18.5859375 53.593125 -18.5859375 54.953125 C-23.27315569 55.32810246 -26.63469552 55.43771997 -30.8984375 53.265625 C-35.6185155 49.20416254 -38.30343751 45.94762491 -38.8984375 39.640625 C-38.46609107 34.53893718 -36.2351298 31.85603919 -32.9609375 28.078125 C-31.5859375 26.953125 -31.5859375 26.953125 -29.5859375 26.953125 C-29.64394531 26.19128906 -29.70195313 25.42945312 -29.76171875 24.64453125 C-30.08616107 17.21943703 -29.54589982 11.72264439 -24.5859375 5.953125 C-17.44016991 0.02126189 -9.16207255 -3.70911699 0 0 Z " fill="#F0F0F8" transform="translate(70.5859375,28.046875)"/>
<path d="M0 0 C4.29 0 8.58 0 13 0 C13 15.18 13 30.36 13 46 C8.71 46 4.42 46 0 46 C0 30.82 0 15.64 0 0 Z " fill="#FCFBFD" transform="translate(302,44)"/>
<path d="M0 0 C4.63380445 0.3089203 6.86465682 1.68498212 10.359375 4.5859375 C12.57971137 7.24285687 12.27946458 9.61187954 12.17578125 12.95703125 C11.45169294 16.85647928 9.62808744 18.57270936 6.75 21.25 C3.11217368 22.46260877 0.57264001 22.64544552 -3.25 22.25 C-6.125 19.8125 -6.125 19.8125 -8.25 17.25 C-8.58 16.92 -8.91 16.59 -9.25 16.25 C-9.68836682 12.86831307 -9.73685233 9.62655645 -9.25 6.25 C-6.8125 3.1875 -6.8125 3.1875 -4.25 1.25 C-3.25 0.25 -3.25 0.25 0 0 Z " fill="#5653B5" transform="translate(72.25,60.75)"/>
<path d="M0 0 C2.50945206 2.25850685 2.944282 3.66569197 3.5 7 C3 10 3 10 0.9375 12.4375 C-2.86675115 14.46103784 -4.89227274 14.08506003 -9 13 C-11 11 -11 11 -11.3125 7.0625 C-11.24851175 4.34546052 -11.22360629 3.31508159 -9.625 1.0625 C-6.05504849 -1.27169907 -4.1478626 -1.10045334 0 0 Z " fill="#F8F8FC" transform="translate(313,28)"/>
<path d="M0 0 C0.33 0.66 0.66 1.32 1 2 C2.32 1.67 3.64 1.34 5 1 C5 1.99 5 2.98 5 4 C5.66 4 6.32 4 7 4 C7.79953138 7.28696233 8.09658936 8.71023192 7 12 C6.34 12 5.68 12 5 12 C5 12.99 5 13.98 5 15 C3.68 14.67 2.36 14.34 1 14 C0.67 14.66 0.34 15.32 0 16 C-1.32 15.67 -2.64 15.34 -4 15 C-4 14.01 -4 13.02 -4 12 C-4.99 11.67 -5.98 11.34 -7 11 C-6.67 10.34 -6.34 9.68 -6 9 C-6.66 9 -7.32 9 -8 9 C-8 8.34 -8 7.68 -8 7 C-7.34 7 -6.68 7 -6 7 C-6.33 6.01 -6.66 5.02 -7 4 C-6.01 4 -5.02 4 -4 4 C-4 3.01 -4 2.02 -4 1 C-2.68 0.67 -1.36 0.34 0 0 Z " fill="#F1F1F9" transform="translate(73,64)"/>
<path d="M0 0 C2.92586433 1.46293216 3.05946588 3.40270098 4.125 6.4375 C4.47820312 7.42621094 4.83140625 8.41492188 5.1953125 9.43359375 C6 12 6 12 6 14 C2.37 14 -1.26 14 -5 14 C-3.35 9.38 -1.7 4.76 0 0 Z " fill="#5755B6" transform="translate(186,49)"/>
<path d="M0 0 C0.66 1.32 1.32 2.64 2 4 C1.34 4 0.68 4 0 4 C0 4.66 0 5.32 0 6 C0.66 6 1.32 6 2 6 C2 6.66 2 7.32 2 8 C2.66 8.33 3.32 8.66 4 9 C4 9.99 4 10.98 4 12 C4.99 11.67 5.98 11.34 7 11 C7.33 12.32 7.66 13.64 8 15 C4.41151779 15.51264032 3.19487465 15.13857753 0.1875 13 C-2.78681343 8.92094158 -2.56881408 6.95680841 -2 2 C-1.34 1.34 -0.68 0.68 0 0 Z " fill="#4F4CB2" transform="translate(65,67)"/>
<path d="M0 0 C2.5 0.125 2.5 0.125 3.5 1.125 C3.625 4.125 3.625 4.125 3.5 7.125 C2.5 8.125 2.5 8.125 0.0625 8.3125 C-2.5 8.125 -2.5 8.125 -4.5 6.125 C-3.77607362 0.18880368 -3.77607362 0.18880368 0 0 Z " fill="#4F4DB2" transform="translate(73.5,67.875)"/>
<path d="M0 0 C-1.65 1.65 -3.3 3.3 -5 5 C-5.66 4.67 -6.32 4.34 -7 4 C-7 4.99 -7 5.98 -7 7 C-8.98 7.33 -10.96 7.66 -13 8 C-10.64175733 0.72875178 -7.4631798 -0.43056807 0 0 Z " fill="#5D5AB8" transform="translate(76,61)"/>
<path d="M0 0 C0 0.99 0 1.98 0 3 C0.66 3 1.32 3 2 3 C2.79953138 6.28696233 3.09658936 7.71023192 2 11 C1.34 11 0.68 11 0 11 C0 11.99 0 12.98 0 14 C-0.66 13.67 -1.32 13.34 -2 13 C-1.96519531 12.38511719 -1.93039063 11.77023438 -1.89453125 11.13671875 C-1.86746094 10.32847656 -1.84039062 9.52023438 -1.8125 8.6875 C-1.77769531 7.88699219 -1.74289063 7.08648437 -1.70703125 6.26171875 C-2.06198392 3.52148416 -2.89366282 2.70828921 -5 1 C-2 0 -2 0 0 0 Z " fill="#E8E8F5" transform="translate(78,65)"/>
</svg>
